<svg height="58" viewBox="0 0 58 58" width="58" xmlns="http://www.w3.org/2000/svg"><g fill="none" stroke="#959595" stroke-linecap="round" stroke-linejoin="round" stroke-width="2"><path d="m29.013 1v56"/><path d="m17.191 4.866 11.746 11.746"/><path d="m40.759 4.866-11.746 11.746"/><path d="m29.013 1v56"/><path d="m17.191 4.866 11.746 11.746"/><path d="m40.759 4.866-11.746 11.746"/><path d="m40.81 53.134-11.746-11.746"/><path d="m17.242 53.134 11.746-11.746"/><path d="m1 28.988h56"/><path d="m4.866 40.81 11.746-11.746"/><path d="m4.866 17.242 11.746 11.746"/><path d="m1 28.988h56"/><path d="m4.866 40.81 11.746-11.746"/><path d="m4.866 17.242 11.746 11.746"/><path d="m53.134 17.191-11.746 11.746"/><path d="m53.134 40.759-11.746-11.746"/></g></svg>