<svg height="45.728" viewBox="0 0 32 45.728" width="32" xmlns="http://www.w3.org/2000/svg"><path d="m-892.451 2012.659a2.367 2.367 0 0 0 -1.98-1.072 2.363 2.363 0 0 0 -1.98 1.072c-1.436 2.2-14.02 21.682-14.02 29.325 0 8.454 7.177 15.33 16 15.33s16-6.876 16-15.33c-.001-7.643-12.586-27.128-14.02-29.325zm5.36 37.355a7.542 7.542 0 0 0 .152-1.5c0-4.138-7.493-16.2-7.493-16.2s-7.493 12.062-7.493 16.2a7.533 7.533 0 0 0 .15 1.5 10.328 10.328 0 0 1 -3.926-8.03c0-4.128 6.27-15.583 11.266-23.624 5 8.038 11.268 19.494 11.268 23.624a10.32 10.32 0 0 1 -3.924 8.03z" fill="#3c3c3c" transform="translate(910.432 -2011.587)"/></svg>