<svg height="80" viewBox="0 0 80 80" width="80" xmlns="http://www.w3.org/2000/svg"><g transform="translate(-253 -524)"><g fill="none" stroke="#959595" stroke-miterlimit="10" stroke-width="2"><circle cx="293" cy="564" r="40" stroke="none"/><circle cx="293" cy="564" fill="none" r="39"/></g><path d="m-4083.973 2280.742a1.593 1.593 0 0 0 -1.333-.721 1.591 1.591 0 0 0 -1.332.721c-.965 1.477-9.429 14.583-9.429 19.724a10.555 10.555 0 0 0 10.761 10.311 10.556 10.556 0 0 0 10.763-10.311c0-5.141-8.464-18.247-9.43-19.724zm3.605 25.125a5.079 5.079 0 0 0 .1-1.012c0-2.783-5.04-10.9-5.04-10.9s-5.04 8.113-5.04 10.9a5.043 5.043 0 0 0 .1 1.012 6.947 6.947 0 0 1 -2.642-5.4c0-2.777 4.217-10.481 7.579-15.889 3.361 5.407 7.579 13.111 7.579 15.889a6.951 6.951 0 0 1 -2.635 5.401z" fill="#959595" transform="translate(4378.627 -1731.422)"/></g></svg>