<svg height="80" viewBox="0 0 80 80" width="80" xmlns="http://www.w3.org/2000/svg"><g transform="translate(-387 -524)"><g fill="none" stroke="#959595" stroke-miterlimit="10" stroke-width="2"><circle cx="427" cy="564" r="40" stroke="none"/><circle cx="427" cy="564" fill="none" r="39"/></g><path d="m-3971.835 2279.886a.574.574 0 0 0 -.447-.136l-17.548 2.271a.565.565 0 0 0 -.493.562v20.16a5.876 5.876 0 0 0 -4.529-2.053 5.409 5.409 0 0 0 -5.661 5.1 5.406 5.406 0 0 0 5.661 5.095 5.407 5.407 0 0 0 5.661-5.095c0-.13-.011-.26-.022-.388a.531.531 0 0 0 .022-.109v-16.423l16.415-2.125v10.336a5.88 5.88 0 0 0 -4.529-2.051 5.406 5.406 0 0 0 -5.66 5.095 5.406 5.406 0 0 0 5.66 5.095 5.414 5.414 0 0 0 5.657-5.019v-.021-19.868a.569.569 0 0 0 -.192-.425" fill="#959595" transform="translate(4410.478 -1731.514)"/></g></svg>