<svg height="80" viewBox="0 0 80 80" width="80" xmlns="http://www.w3.org/2000/svg"><g transform="translate(-533 -524)"><g fill="none" stroke="#959595" stroke-miterlimit="10" stroke-width="2"><circle cx="573" cy="564" r="40" stroke="none"/><circle cx="573" cy="564" fill="none" r="39"/></g><g fill="#959595"><path d="m-3881.372 2284.146h-14.895a3.583 3.583 0 0 0 -3.572 3.572v12.039a3.582 3.582 0 0 0 3.572 3.572h14.895a3.584 3.584 0 0 0 3.573-3.572v-12.039a3.562 3.562 0 0 0 -3.551-3.572z" transform="translate(4457.037 -1730.047)"/><path d="m-3875.789 2285.633a1.832 1.832 0 0 0 -.608.252l-5.572 3.213v8.289l5.609 3.215a2.129 2.129 0 0 0 2.912-.755l.018-.032a2.184 2.184 0 0 0 .281-1.071v-11.037a2.151 2.151 0 0 0 -2.175-2.13 2.235 2.235 0 0 0 -.465.055" transform="translate(4462.993 -1729.569)"/></g></g></svg>