<svg height="80" viewBox="0 0 80 80" width="80" xmlns="http://www.w3.org/2000/svg"><g transform="translate(-120 -524)"><g fill="none" stroke="#959595" stroke-miterlimit="10" stroke-width="2"><circle cx="160" cy="564" r="40" stroke="none"/><circle cx="160" cy="564" fill="none" r="39"/></g><path d="m17.366 3a11.862 11.862 0 0 0 -2.473.247 12.348 12.348 0 0 0 -5.758 21.335 3.434 3.434 0 0 1 1.166 2.6v4.08a3.543 3.543 0 0 0 3.532 3.532h.495a3.5 3.5 0 0 0 6.076 0h.496a3.543 3.543 0 0 0 3.532-3.532v-4.08a3.425 3.425 0 0 1 1.128-2.582 12.349 12.349 0 0 0 -8.194-21.6zm3.534 28.258h-7.067v-1.766h7.067zm0-3.532h-7.067v-1.766h7.067zm-2.649-9.873v4.574h-1.769v-4.574l-3.232-3.214 1.25-1.254 2.861 2.861 2.861-2.861 1.254 1.254z" fill="#959595" transform="translate(142.64 544.888)"/></g></svg>