<svg height="40.001" viewBox="0 0 40 40.001" width="40" xmlns="http://www.w3.org/2000/svg"><g fill="#fff"><path d="m-4216.062 2211.132a1.366 1.366 0 0 0 -1.367 1.365v3.877a1.367 1.367 0 0 0 1.367 1.367 1.367 1.367 0 0 0 1.368-1.367v-3.874a1.364 1.364 0 0 0 -1.36-1.365h-.008" transform="translate(4236.057 -2177.742)"/><path d="m-4216.062 2192.7a1.362 1.362 0 0 0 1.368-1.357v-3.885a1.367 1.367 0 0 0 -1.368-1.366 1.367 1.367 0 0 0 -1.367 1.366v3.877a1.366 1.366 0 0 0 1.366 1.367" transform="translate(4236.057 -2186.089)"/><path d="m-4224.16 2208.292-2.746 2.745a1.366 1.366 0 0 0 0 1.928 1.374 1.374 0 0 0 1.938 0l2.739-2.745a1.364 1.364 0 0 0 .044-1.928 1.363 1.363 0 0 0 -1.927-.044l-.045.044" transform="translate(4232.765 -2178.829)"/><path d="m-4208.236 2195.652a1.36 1.36 0 0 0 .967-.395l2.739-2.745a1.364 1.364 0 0 0 -.009-1.929 1.365 1.365 0 0 0 -1.92 0l-2.745 2.743a1.375 1.375 0 0 0 0 1.932 1.365 1.365 0 0 0 .967.4" transform="translate(4238.667 -2184.723)"/><path d="m-4224.791 2201.428a1.363 1.363 0 0 0 -1.363-1.363h-3.881a1.366 1.366 0 0 0 -1.365 1.366 1.365 1.365 0 0 0 1.365 1.364h3.877a1.363 1.363 0 0 0 1.367-1.359z" transform="translate(4231.4 -2181.43)"/><path d="m-4201.109 2200.065h-3.891a1.366 1.366 0 0 0 -1.365 1.366 1.365 1.365 0 0 0 1.365 1.364h3.887a1.364 1.364 0 0 0 1.364-1.364 1.365 1.365 0 0 0 -1.364-1.366" transform="translate(4239.746 -2181.43)"/><path d="m-4224.162 2195.253a1.364 1.364 0 0 0 1.928-.044 1.366 1.366 0 0 0 0-1.884l-2.739-2.744a1.365 1.365 0 0 0 -1.931.01 1.364 1.364 0 0 0 0 1.917z" transform="translate(4232.766 -2184.723)"/><path d="m-4207.266 2208.292a1.364 1.364 0 0 0 -1.928-.044 1.361 1.361 0 0 0 -.046 1.927l.046.045 2.738 2.745a1.367 1.367 0 0 0 1.931-.009 1.366 1.366 0 0 0 0-1.919z" transform="translate(4238.662 -2178.829)"/><path d="m-4213.748 2193.117a10.627 10.627 0 0 0 -10.625 10.627 10.627 10.627 0 0 0 10.627 10.625 10.625 10.625 0 0 0 10.625-10.627 10.633 10.633 0 0 0 -10.626-10.621" transform="translate(4233.742 -2183.747)"/></g></svg>