<svg height="40.003" viewBox="0 0 40 40.003" width="40" xmlns="http://www.w3.org/2000/svg"><g fill="#fbb040"><path d="m-4037.649 1945.78a1.365 1.365 0 0 0 -1.367 1.365v3.877a1.367 1.367 0 0 0 1.367 1.367 1.367 1.367 0 0 0 1.367-1.367v-3.879a1.361 1.361 0 0 0 -1.36-1.365h-.007" transform="translate(4057.644 -1912.387)"/><path d="m-4037.649 1927.347a1.362 1.362 0 0 0 1.367-1.359v-3.888a1.367 1.367 0 0 0 -1.367-1.368 1.367 1.367 0 0 0 -1.367 1.368v3.876a1.367 1.367 0 0 0 1.366 1.368" transform="translate(4057.644 -1920.736)"/><path d="m-4045.747 1942.941-2.746 2.745a1.364 1.364 0 0 0 0 1.927 1.372 1.372 0 0 0 1.938 0l2.739-2.744a1.364 1.364 0 0 0 .045-1.928 1.363 1.363 0 0 0 -1.928-.045l-.044.045" transform="translate(4054.352 -1913.475)"/><path d="m-4029.825 1930.3a1.357 1.357 0 0 0 .967-.395l2.74-2.745a1.365 1.365 0 0 0 -.01-1.931 1.366 1.366 0 0 0 -1.918 0l-2.745 2.744a1.376 1.376 0 0 0 0 1.932 1.362 1.362 0 0 0 .966.4" transform="translate(4060.253 -1919.369)"/><path d="m-4046.379 1936.076a1.362 1.362 0 0 0 -1.361-1.363h-3.883a1.364 1.364 0 0 0 -1.364 1.365 1.364 1.364 0 0 0 1.364 1.364h3.878a1.36 1.36 0 0 0 1.366-1.359v-.008" transform="translate(4052.987 -1916.076)"/><path d="m-4022.7 1934.713h-3.888a1.364 1.364 0 0 0 -1.364 1.365 1.364 1.364 0 0 0 1.364 1.364h3.888a1.364 1.364 0 0 0 1.364-1.364 1.364 1.364 0 0 0 -1.364-1.365" transform="translate(4061.333 -1916.076)"/><path d="m-4045.749 1929.9a1.362 1.362 0 0 0 1.927-.045 1.361 1.361 0 0 0 0-1.883l-2.739-2.745a1.366 1.366 0 0 0 -1.931.01 1.363 1.363 0 0 0 0 1.917z" transform="translate(4054.354 -1919.369)"/><path d="m-4028.854 1942.941a1.363 1.363 0 0 0 -1.928-.045 1.364 1.364 0 0 0 -.044 1.928l.044.045 2.74 2.744a1.363 1.363 0 0 0 1.93-.009 1.362 1.362 0 0 0 0-1.917z" transform="translate(4060.249 -1913.475)"/><path d="m-4035.335 1927.765a10.625 10.625 0 0 0 -10.625 10.626 10.626 10.626 0 0 0 10.626 10.625 10.628 10.628 0 0 0 10.625-10.627v-.005a10.635 10.635 0 0 0 -10.627-10.62m0 18.519a7.894 7.894 0 0 1 -7.888-7.9 7.892 7.892 0 0 1 7.9-7.887 7.892 7.892 0 0 1 7.888 7.887 7.905 7.905 0 0 1 -7.9 7.9" transform="translate(4055.329 -1918.393)"/></g></svg>