<svg height="52.574" viewBox="0 0 90 52.574" width="90" xmlns="http://www.w3.org/2000/svg" xmlns:xlink="http://www.w3.org/1999/xlink"><clipPath id="a"><path d="m0 0h90v52.574h-90z"/></clipPath><g clip-path="url(#a)" fill="#fff" fill-rule="evenodd"><path d="m145.67 385.449a4.792 4.792 0 0 1 -2.628.708 16.334 16.334 0 0 1 -4.954-.708 5.15 5.15 0 0 0 -.91-.2c-.3 0-.4.2-.4.607v1.011a1.458 1.458 0 0 0 .2.708 1.557 1.557 0 0 0 .607.4 13.488 13.488 0 0 0 5.46 1.014 7.925 7.925 0 0 0 5.054-1.519 4.76 4.76 0 0 0 1.922-4.043 4.618 4.618 0 0 0 -.909-2.933 7.135 7.135 0 0 0 -3.038-1.92l-2.829-1.113a5.37 5.37 0 0 1 -2.225-1.214 1.909 1.909 0 0 1 -.607-1.519c0-1.519 1.113-2.326 3.438-2.326a12.25 12.25 0 0 1 3.843.607c.4.1.708.2.808.2.3 0 .506-.2.506-.607v-1.002a1.46 1.46 0 0 0 -.2-.708.925.925 0 0 0 -.607-.4 14.381 14.381 0 0 0 -4.55-.81 7.8 7.8 0 0 0 -4.752 1.415 4.511 4.511 0 0 0 -1.822 3.741c0 2.324 1.315 4.043 3.943 5.056l3.032 1.106a5.945 5.945 0 0 1 2.022 1.113 1.762 1.762 0 0 1 .5 1.414 2.22 2.22 0 0 1 -.91 1.923m10.821-22.145a2.381 2.381 0 0 0 -1.72-.606 2.136 2.136 0 0 0 -1.613.606 2.061 2.061 0 0 0 -.614 1.517 1.906 1.906 0 0 0 .607 1.519 2.458 2.458 0 0 0 3.235 0 2.057 2.057 0 0 0 .607-1.519 1.86 1.86 0 0 0 -.506-1.519m-.607 6.875h-2.114c-.506 0-.708.2-.708.708v16.786c0 .506.2.708.708.708h2.123c.5 0 .708-.2.708-.708v-16.782a.641.641 0 0 0 -.561-.709.667.667 0 0 0 -.146 0m9.5 4.045a5.533 5.533 0 0 1 4.348-1.519 9.394 9.394 0 0 1 2.933.4 1.479 1.479 0 0 0 .606.1c.3 0 .506-.2.506-.708v-.999a1.18 1.18 0 0 0 -.2-.706 2.221 2.221 0 0 0 -.5-.4 17.811 17.811 0 0 0 -3.842-.607 8.464 8.464 0 0 0 -6.572 2.527c-1.519 1.614-2.326 4.045-2.326 7.077s.708 5.359 2.225 6.977a8.386 8.386 0 0 0 6.47 2.427 9.992 9.992 0 0 0 4.045-.706.932.932 0 0 0 .607-.406c.1-.1.1-.4.1-.708v-1.014c0-.5-.2-.706-.506-.706a1.074 1.074 0 0 0 -.5.1 12.649 12.649 0 0 1 -3.236.5 5.435 5.435 0 0 1 -4.246-1.519c-.91-1.01-1.315-2.628-1.315-4.751v-.506c.1-2.224.5-3.842 1.415-4.853m-54.8 14.158h2.123c.5 0 .708-.2.708-.708v-12.638a5.325 5.325 0 0 0 -1.315-3.944 5.114 5.114 0 0 0 -3.842-1.418 11.9 11.9 0 0 0 -7.078 2.527c-.807-1.72-2.324-2.527-4.548-2.527a11.87 11.87 0 0 0 -6.683 2.324l-.2-1.111a.466.466 0 0 0 -.3-.506.759.759 0 0 0 -.5-.1h-1.622c-.5 0-.708.2-.708.708v16.783c0 .506.2.708.708.708h2.118c.506 0 .708-.2.708-.708v-13.649a10.293 10.293 0 0 1 5.257-1.613 2.363 2.363 0 0 1 2.123.909 4.53 4.53 0 0 1 .709 2.629v11.628c0 .5.2.706.706.706h2.123c.506 0 .709-.2.709-.706v-13.553a9.912 9.912 0 0 1 5.257-1.613 2.363 2.363 0 0 1 2.123.909 4.539 4.539 0 0 1 .708 2.629v11.628c0 .5.2.706.706.706m19.214-17.494v13.45a9.518 9.518 0 0 1 -5.159 1.716 2.987 2.987 0 0 1 -2.427-.91 4.34 4.34 0 0 1 -.708-2.832v-11.424c0-.506-.2-.709-.708-.709h-2.12c-.506 0-.709.2-.709.709v12.537a5.58 5.58 0 0 0 1.315 4.045 5.358 5.358 0 0 0 3.943 1.414 11.628 11.628 0 0 0 6.875-2.427l.2 1.214a.467.467 0 0 0 .3.506c.1.1.3.1.607.1h1.517c.506 0 .709-.2.709-.708v-16.681c0-.506-.2-.709-.709-.709h-2.124c-.607 0-.808.3-.808.709" transform="translate(-85.852 -362.699)"/><path d="m170.136 403.071c5.257-4.448 6.673-13.649 5.561-15.065-.506-.606-2.933-1.213-5.965-1.213a18.039 18.039 0 0 0 -10.01 2.73c-.91.606-.708 1.415.2 1.315 3.133-.406 10.212-1.214 11.527.4 1.213 1.613-1.415 8.291-2.628 11.223-.3.909.4 1.214 1.313.606m-4.246-9.5a88.1 88.1 0 0 1 -78.458-4.852 1.435 1.435 0 0 0 -.607-.2c-.708 0-1.112.808-.4 1.519a65.906 65.906 0 0 0 44.487 16.99c12.338 0 26.591-3.843 36.4-11.123 1.719-1.214.3-3.036-1.414-2.324" transform="translate(-86.051 -354.44)"/></g></svg>