<svg height="71.25" viewBox="0 0 60 71.25" width="60" xmlns="http://www.w3.org/2000/svg"><g fill-rule="evenodd"><path d="m422.694 155.784a13.518 13.518 0 0 1 9.921-5.5 13.487 13.487 0 0 1 -3.265 10.1c-4.4 5.289-9.407 4.425-9.407 4.425s-.939-4.164 2.751-9.025" transform="translate(-388.659 -150.287)"/><path d="m428.587 166.653c2.489 0 7.1-3.431 13.115-3.431 10.344 0 14.414 7.384 14.414 7.384a16.04 16.04 0 0 0 -7.956 13.985c0 11.172 9.913 15.018 9.913 15.018s-6.931 19.566-16.294 19.566c-4.3 0-7.643-2.906-12.174-2.906-4.616 0-9.2 3.015-12.182 3.015-8.55 0-19.35-18.561-19.35-33.48 0-14.68 9.142-22.38 17.715-22.38 5.574 0 9.9 3.225 12.8 3.225" transform="translate(-398.073 -148.033)"/></g></svg>