<svg height="70" viewBox="0 0 70 70" width="70" xmlns="http://www.w3.org/2000/svg"><path d="m282.078 378.793-10.7-8.056v31.663l10.7-8.056 10.352-7.775zm0 0-10.7-8.056v31.663l10.7-8.056 10.352-7.775zm0 0-10.7-8.056v31.663l10.7-8.056 10.352-7.775zm-7.192-20.123v-7.105a34.868 34.868 0 0 0 -18.667 7.774l4.982 5.03a27.845 27.845 0 0 1 13.685-5.699zm-18.632 10.66-5.017-5a35.037 35.037 0 0 0 -7.754 18.715h7.087a27.984 27.984 0 0 1 5.684-13.719zm-5.684 20.753h-7.087a35.044 35.044 0 0 0 7.754 18.714l5.017-5.03a27.715 27.715 0 0 1 -5.685-13.685zm5.649 23.709a34.985 34.985 0 0 0 18.667 7.774v-7.106a27.84 27.84 0 0 1 -13.684-5.7l-4.982 5.03zm57.263-27.227a35.2 35.2 0 0 1 -31.4 35v-7.105a28.147 28.147 0 0 0 0-55.79v-7.105a35.2 35.2 0 0 1 31.4 34.999z" fill="#fff" transform="translate(-243.482 -351.565)"/></svg>