<svg height="70" viewBox="0 0 70 70" width="70" xmlns="http://www.w3.org/2000/svg"><path d="m128.862 223.862a35 35 0 1 0 -35-35 35.014 35.014 0 0 0 35 35m14.209-18.5c-2.354 0-9.788-8.247-30.683-3.966a9.136 9.136 0 0 1 -1.68.368 2.318 2.318 0 0 1 -.309-4.6c11.557-2.551 23.372-2.333 33.444 3.7 2.4 1.535 1.378 4.5-.773 4.5m3.8-9.254c-.331-.087-.234.2-1.742-.592-8.822-5.221-21.97-7.327-33.672-4.15a5.828 5.828 0 0 1 -1.679.368 2.87 2.87 0 0 1 -.548-5.659c13.753-3.864 28.508-1.61 38.781 4.5a2.943 2.943 0 0 1 1.589 2.778 2.735 2.735 0 0 1 -2.714 2.757h-.021m-39.738-21.831c13.192-3.862 33.156-2.642 45.569 4.6 3.18 1.833 1.931 6.474-1.453 6.474a3.235 3.235 0 0 1 -1.822-.552c-10.043-6-28.012-7.434-39.636-4.187a6.774 6.774 0 0 1 -1.824.364 3.257 3.257 0 0 1 -3.287-3.224c0-.035 0-.071 0-.106a3.335 3.335 0 0 1 2.456-3.369" fill="#fff" transform="translate(-93.862 -153.862)"/></svg>