<svg height="41.352" viewBox="0 0 94.001 41.352" width="94.001" xmlns="http://www.w3.org/2000/svg"><g fill="#fff" fill-rule="evenodd"><path d="m299.1 174.6v-1.786a.378.378 0 0 1 .376-.376h5.824a.377.377 0 0 1 .375.376v1.786a.377.377 0 0 1 -.375.376h-1.4a.177.177 0 0 0 -.188.166v7.729a.177.177 0 0 0 .168.188.054.054 0 0 0 .02 0h1.6a.378.378 0 0 1 .376.378v1.784a.377.377 0 0 1 -.376.375h-6.2a.376.376 0 0 1 -.376-.375v-1.786a.377.377 0 0 1 .376-.376h1.6a.179.179 0 0 0 .188-.168v-7.728a.177.177 0 0 0 -.166-.188.06.06 0 0 0 -.021 0h-1.406a.378.378 0 0 1 -.376-.376m8.845-1.786a.378.378 0 0 1 .376-.376h2.236a.463.463 0 0 1 .471.339l2.575 7.143c.036.113.168.076.168-.038v-7.067a.377.377 0 0 1 .376-.376h1.88a.378.378 0 0 1 .376.376v12.407a.377.377 0 0 1 -.376.375h-2.218a.487.487 0 0 1 -.507-.319l-2.557-6.6c-.037-.112-.169-.075-.169.037v6.506a.377.377 0 0 1 -.376.375h-1.88a.378.378 0 0 1 -.378-.375zm-73.2 2.444h54.285v26.086a.235.235 0 0 1 -.235.235h-54.05a.235.235 0 0 1 -.235-.235v-25.85a.236.236 0 0 1 .235-.236m90.936 18.329v-29.146a1.409 1.409 0 0 0 -1.4-1.4h-33.849a1.409 1.409 0 0 0 -1.4 1.4v7.994h-55.94a1.406 1.406 0 0 0 -1.406 1.406v29.142a1.406 1.406 0 0 0 1.406 1.406h57.345a1.406 1.406 0 0 0 1.406-1.406v-7.982h32.435a1.41 1.41 0 0 0 1.4-1.406" transform="translate(-231.7 -163.036)"/><path d="m269.425 190.956v-12.4a.376.376 0 0 0 -.375-.376h-1.88a.376.376 0 0 0 -.376.376v7.067c0 .112-.132.15-.17.037l-2.575-7.143a.459.459 0 0 0 -.468-.338h-2.238a.377.377 0 0 0 -.376.376v12.405a.378.378 0 0 0 .376.376h1.88a.376.376 0 0 0 .376-.376v-6.5c0-.113.132-.149.17-.037l2.557 6.6a.484.484 0 0 0 .507.319h2.218a.376.376 0 0 0 .375-.376m-21.319-10.526v-1.879a.376.376 0 0 0 -.375-.376h-7.706a.376.376 0 0 0 -.376.376v1.88a.377.377 0 0 0 .376.376h2.349a.176.176 0 0 1 .188.166.06.06 0 0 1 0 .021v9.961a.378.378 0 0 0 .377.376h1.879a.378.378 0 0 0 .376-.376v-9.963a.176.176 0 0 1 .166-.187h2.371a.378.378 0 0 0 .376-.376m10.712 6.955v-8.833a.375.375 0 0 0 -.373-.378h-1.9a.376.376 0 0 0 -.376.376v8.833c0 .827-.677 1.505-1.824 1.505a1.589 1.589 0 0 1 -1.773-1.383c0-.041-.009-.082-.011-.122v-8.833a.376.376 0 0 0 -.375-.376h-1.9a.375.375 0 0 0 -.376.376v8.833a4.249 4.249 0 0 0 4.337 4.157h.1a4.259 4.259 0 0 0 4.468-4.038c0-.038 0-.076 0-.114m12.691-8.833v12.396a.378.378 0 0 0 .376.376h6.907a.377.377 0 0 0 .375-.376v-1.883a.377.377 0 0 0 -.375-.376h-4.459a.178.178 0 0 1 -.189-.166v-2.276a.178.178 0 0 1 .166-.189h4.251a.376.376 0 0 0 .376-.378v-1.879a.378.378 0 0 0 -.376-.376h-4.228a.178.178 0 0 1 -.189-.165v-2.279a.176.176 0 0 1 .166-.187.135.135 0 0 1 .022 0h4.378a.379.379 0 0 0 .378-.376v-1.879a.376.376 0 0 0 -.378-.376h-6.825a.376.376 0 0 0 -.376.376" transform="translate(-229.778 -159.376)"/></g></svg>