<svg height="38" viewBox="0 0 160 38" width="160" xmlns="http://www.w3.org/2000/svg"><path d="m25.241 20.382a7.939 7.939 0 0 1 4.008-7.221 8.778 8.778 0 0 0 -6.792-3.761 9.72 9.72 0 0 0 -4.082.76 20.038 20.038 0 0 1 -3.007.988 9.037 9.037 0 0 1 -2.711-.836 9.18 9.18 0 0 0 -3.415-.836 8.467 8.467 0 0 0 -4.417 1.311 9.393 9.393 0 0 0 -3.265 3.477 12.987 12.987 0 0 0 -1.56 6.536 21.356 21.356 0 0 0 1.149 6.84 23.072 23.072 0 0 0 2.751 5.737 18.478 18.478 0 0 0 2.6 3.269 4.358 4.358 0 0 0 3.268 1.52 8.274 8.274 0 0 0 2.82-.8 8.055 8.055 0 0 1 3.267-.72 7.806 7.806 0 0 1 3.155.72 8.125 8.125 0 0 0 2.969.761 4.917 4.917 0 0 0 3.193-1.481 9 9 0 0 0 1.128-1.255q.706-.929 1.356-1.9.541-.837 1.021-1.71a17.186 17.186 0 0 0 .909-1.938q.184-.418.334-.855c.1-.291.2-.588.3-.892a8.434 8.434 0 0 1 -4.972-7.714zm26.916 6.775h-.18l-7.538-17.2h-5.92v27.753h5.159v-17.977h.239l6.3 14.275h3.618l6.279-14.275h.241v17.977h5.218v-27.758h-5.878zm-31.594-20.836a8.377 8.377 0 0 0 1.968-5.321v-.38a2 2 0 0 0 -.037-.38 7.264 7.264 0 0 0 -2.915.873 8.082 8.082 0 0 0 -2.543 2.014 7.863 7.863 0 0 0 -2 5.131v.36a1.929 1.929 0 0 0 .037.362q3.082.3 5.494-2.66zm105.307 3.631h5.8v27.758h-5.8zm23.312 4.412c3.439 0 5.258 2.644 5.258 5.491h5.56v-.59c0-5.368-4.1-9.841-10.859-9.841-7.239 0-11.558 4.758-11.558 12.873v3.132c0 8.112 4.279 12.811 11.537 12.811 6.94 0 10.88-4.54 10.88-9.579v-.61h-5.56a4.924 4.924 0 0 1 -5.217 5.247c-3.52 0-5.76-2.5-5.76-7.851v-3.13c0-5.331 2.26-7.954 5.719-7.954zm-61.431 13.117c0 3.722-2.18 5.775-5.379 5.775-3.22 0-5.4-2.033-5.4-5.775v-17.529h-5.757v18.342c0 5.919 4.2 9.945 11.157 9.945 6.939 0 11.158-4.026 11.158-9.945v-18.342h-5.779zm24.963-5.937-4.139-.934c-2.439-.51-3.719-1.587-3.719-3.194 0-2.134 1.739-3.477 4.54-3.477 3.159 0 4.738 1.81 4.878 3.762h5.4c-.06-4.9-4.159-8.318-10.258-8.318-5.778 0-10.338 3.031-10.338 8.48 0 4.718 3.2 6.912 7.039 7.748l4.1.955c2.759.63 4.159 1.546 4.159 3.436 0 2.157-1.72 3.622-4.939 3.622-3.46 0-5.279-1.831-5.439-3.885h-5.56c.081 3.925 2.68 8.5 10.719 8.5 6.758 0 10.938-3.355 10.938-8.807 0-5.043-3.381-7.016-7.381-7.889z" fill="#fff" transform="translate(0 -.24)"/></svg>