<svg height="20.999" viewBox="0 0 24 20.999" width="24" xmlns="http://www.w3.org/2000/svg"><g fill="#fff"><path d="m23.73 109.31-4.5-3.866a.734.734 0 0 0 -.8-.107.776.776 0 0 0 -.432.7v2.319h-1.254a2.966 2.966 0 0 1 -2.544-1.456l-4.856-8.005a5.925 5.925 0 0 0 -5.088-2.907h-4.256v3.092h4.255a2.966 2.966 0 0 1 2.545 1.454l4.857 8.009a5.929 5.929 0 0 0 5.088 2.907h1.255v2.319a.776.776 0 0 0 .432.7.742.742 0 0 0 .318.073.728.728 0 0 0 .48-.179l4.5-3.866a.788.788 0 0 0 0-1.187z" transform="translate(0 -93.544)"/><path d="m252.941 35.209-3.668-3.056a.612.612 0 0 0 -1 .469v1.834h-1.023a4.86 4.86 0 0 0 -4.147 2.3l-.221.355 1.441 2.307.853-1.366a2.433 2.433 0 0 1 2.073-1.149h1.023v1.834a.611.611 0 0 0 .352.554.62.62 0 0 0 .259.057.611.611 0 0 0 .391-.142l3.668-3.056a.611.611 0 0 0 0-.939z" transform="translate(-229.161 -32.012)"/><path d="m6.395 286.164-.852 1.366a2.435 2.435 0 0 1 -2.075 1.149h-3.468v2.445h3.468a4.863 4.863 0 0 0 4.147-2.3l.221-.355z" transform="translate(0 -272.57)"/></g></svg>