<svg height="80" viewBox="0 0 80 80" width="80" xmlns="http://www.w3.org/2000/svg"><path d="m1275.735 1569.09c8.576 8.562 16.981 12.036 20.007 9.013l4.158-4.149a7.344 7.344 0 0 1 10.371 0l9.333 9.318a7.314 7.314 0 0 1 0 10.354l-7.273 7.259c-6.87 6.861-27.191-2.3-46.668-21.74-9.733-9.723-16.117-18.88-20.242-27.491s-4.964-15.674-1.53-19.1l7.271-7.261a7.344 7.344 0 0 1 10.371 0l9.333 9.316a7.314 7.314 0 0 1 0 10.354l-4.161 4.159c-3.026 3.019.452 11.411 9.028 19.969z" fill="#16ffcf" transform="translate(-1241.752 -1523.148)"/></svg>