<svg xmlns="http://www.w3.org/2000/svg" xmlns:xlink="http://www.w3.org/1999/xlink" width="80" height="80" viewBox="0 0 80 80"><defs><style>.a{fill:#959595;}.b,.e{fill:none;}.b{stroke:#959595;stroke-linecap:round;stroke-linejoin:round;stroke-width:2px;}.c{clip-path:url(#a);}.d{stroke:none;}</style><clipPath id="a"><rect class="a" width="32" height="20"/></clipPath></defs><g transform="translate(-392 -560)"><g class="b" transform="translate(392 560)"><circle class="d" cx="40" cy="40" r="40"/><circle class="e" cx="40" cy="40" r="39"/></g><g class="c" transform="translate(418 590)"><path class="a" d="M18.1,0H3.5A3.628,3.628,0,0,0,0,3.724V16.276A3.628,3.628,0,0,0,3.5,20H18.1a3.63,3.63,0,0,0,3.5-3.724V3.724A3.606,3.606,0,0,0,18.1,0" transform="translate(0 0)"/><path class="a" d="M17.183.95a1.759,1.759,0,0,0-.6.261L11.125,4.563V13.2l5.5,3.352a2.019,2.019,0,0,0,2.872-.819,2.39,2.39,0,0,0,.279-1.116V3.111A2.144,2.144,0,0,0,17.183.95" transform="translate(12.227 1.098)"/></g></g></svg>