<svg height="136.874" viewBox="0 0 136.874 136.874" width="136.874" xmlns="http://www.w3.org/2000/svg"><path d="m1282.865 1578.729c10.375 10.359 20.544 14.562 24.205 10.9l5.031-5.02a8.884 8.884 0 0 1 12.547 0l11.291 11.273a8.848 8.848 0 0 1 0 12.526l-8.8 8.782c-8.312 8.3-32.9-2.778-56.459-26.3-11.775-11.762-19.5-22.841-24.49-33.259s-6.005-18.963-1.85-23.108l8.8-8.785a8.885 8.885 0 0 1 12.547 0l11.292 11.271a8.849 8.849 0 0 1 0 12.526l-5.034 5.032c-3.661 3.653.546 13.8 10.922 24.158z" fill="#fff" transform="matrix(-.70710678 .70710678 -.70710678 -.70710678 2091.954 267.414)"/></svg>