<svg height="47.003" viewBox="0 0 80 47.003" width="80" xmlns="http://www.w3.org/2000/svg"><g fill="#00edff"><path d="m1234.466 1595.956h-37.366a8.884 8.884 0 0 0 -8.961 8.753v29.5a8.884 8.884 0 0 0 8.961 8.753h37.365a8.884 8.884 0 0 0 8.962-8.753v-29.5a8.827 8.827 0 0 0 -8.961-8.753z" transform="translate(-1188.14 -1595.956)"/><path d="m1213.661 1596.989a4.169 4.169 0 0 0 -1.417.621l-12.979 7.975v20.561l13.065 7.976a4.788 4.788 0 0 0 6.824-1.951 5.71 5.71 0 0 0 .664-2.656v-27.383a5.1 5.1 0 0 0 -6.157-5.143z" transform="translate(-1139.817 -1592.406)"/></g></svg>