<svg height="24.651" viewBox="0 0 29.115 24.651" width="29.115" xmlns="http://www.w3.org/2000/svg"><g opacity=".5" transform="translate(-522.885 -96.956)"><g fill="#959595"><path d="m13.819 0h-11.146a2.743 2.743 0 0 0 -2.673 2.793v9.413a2.743 2.743 0 0 0 2.673 2.794h11.146a2.744 2.744 0 0 0 2.673-2.793v-9.414a2.726 2.726 0 0 0 -2.673-2.793" transform="translate(528 101.781)"/><path d="m15.5.935a1.241 1.241 0 0 0 -.43.2l-3.945 2.535v6.542l3.969 2.537a1.424 1.424 0 0 0 2.073-.62 1.879 1.879 0 0 0 .2-.845v-8.712a1.572 1.572 0 0 0 -1.867-1.637" transform="translate(534.632 102.326)"/><path d="m0 0h1v34h-1z" transform="matrix(.68199836 .7313537 -.7313537 .68199836 547.75032404 96.9556542)"/></g><path d="m0 0h1v34h-1z" fill="#3c3c3c" transform="matrix(.68199836 .7313537 -.7313537 .68199836 548.4323224 97.6870079)"/></g></svg>