<svg height="80" viewBox="0 0 80 80" width="80" xmlns="http://www.w3.org/2000/svg" xmlns:xlink="http://www.w3.org/1999/xlink"><clipPath id="a"><path d="m0 0h32v20h-32z"/></clipPath><g transform="translate(-392 -560)"><g fill="none" stroke="#959595" stroke-linecap="round" stroke-linejoin="round" stroke-width="2"><circle cx="432" cy="600" r="40" stroke="none"/><circle cx="432" cy="600" fill="none" r="39"/></g><g clip-path="url(#a)" fill="#959595" transform="translate(418 590)"><path d="m18.1 0h-14.6a3.628 3.628 0 0 0 -3.5 3.724v12.552a3.628 3.628 0 0 0 3.5 3.724h14.6a3.63 3.63 0 0 0 3.5-3.724v-12.552a3.606 3.606 0 0 0 -3.5-3.724"/><path d="m17.183.95a1.759 1.759 0 0 0 -.6.261l-5.458 3.352v8.637l5.5 3.352a2.019 2.019 0 0 0 2.872-.819 2.39 2.39 0 0 0 .279-1.116v-11.506a2.144 2.144 0 0 0 -2.593-2.161" transform="translate(12.227 1.098)"/></g></g></svg>