<svg height="80" viewBox="0 0 80 80" width="80" xmlns="http://www.w3.org/2000/svg"><g fill="none" stroke="#959595" stroke-linecap="round" stroke-linejoin="round" stroke-width="2"><circle cx="40" cy="40" r="40" stroke="none"/><circle cx="40" cy="40" fill="none" r="39"/></g><g fill="#959595" fill-rule="evenodd"><path d="m421.4 153.3a7.414 7.414 0 0 1 5.442-3.015 7.4 7.4 0 0 1 -1.791 5.538c-2.415 2.9-5.16 2.427-5.16 2.427a6.434 6.434 0 0 1 1.509-4.95" transform="translate(-379.337 -131.287)"/><path d="m414.347 165.038c1.327 0 3.789-1.816 6.995-1.816a8.767 8.767 0 0 1 7.687 3.908 8.476 8.476 0 0 0 -4.243 7.4 8.7 8.7 0 0 0 5.287 7.948s-3.7 10.355-8.69 10.355c-2.293 0-4.076-1.538-6.493-1.538-2.462 0-4.906 1.6-6.5 1.6-4.56 0-10.32-9.823-10.32-17.719 0-7.769 4.876-11.844 9.448-11.844 2.973 0 5.28 1.707 6.826 1.707" transform="translate(-374.073 -135.891)"/></g></svg>