<svg height="24" viewBox="0 0 30 24" width="30" xmlns="http://www.w3.org/2000/svg"><g fill="none" stroke-miterlimit="10" transform="translate(-4806.537 -3342.153)"><path d="m4828.377 3342.154a8.11 8.11 0 0 1 8.16 7.975c0 8.052-15 16.025-15 16.025s-15-8.091-15-16.025a8.069 8.069 0 0 1 8.159-7.975 8.3 8.3 0 0 0 13.681 0z"/><path d="m4814.75585938 3343.15332031-.05273438.00024414h-.00341797-.00390625c-3.94726562 0-7.1586914 3.12890625-7.1586914 6.97509766 0 2.92553711 2.45654296 6.44946289 7.1040039 10.19042969 2.87402344 2.31347656 5.78613281 4.05249023 6.89892578 4.68969726 1.11328125-.62963867 4.02294922-2.34692383 6.89501953-4.64721679 4.64453125-3.72045899 7.10009766-7.2578125 7.10205079-10.22973633-.01025391-1.85546875-.75634766-3.60131836-2.10107422-4.91552735-1.3515625-1.32080078-3.14990235-2.05322265-5.06152344-2.06274414h-.015625c-2.42382813 0-4.6640625 1.17944336-5.9921875 3.1550293l-.83496094 1.24194336-.828125-1.24658203c-1.31054687-1.97290039-3.5336914-3.15063477-5.9477539-3.15063477zm0-1c2.7368164 0 5.28955078 1.35253907 6.78076171 3.59741211 1.50927735-2.24487304 4.07421875-3.59716797 6.82226563-3.59716797h.01806641c4.49707031.0222168 8.13720703 3.57958985 8.16015625 7.97509766 0 8.05175781-15.00048829 16.02490234-15.00048829 16.02490234s-14.99951171-8.09082031-14.99951171-16.02490234c0-4.40405273 3.65332031-7.97509766 8.1586914-7.97509766.02001953-.00024414.04003906-.00024414.0600586-.00024414z" fill="#fff"/></g></svg>